<svg xmlns="http://www.w3.org/2000/svg" viewBox="0 0 32 32">
  <rect width="32" height="32" rx="8" fill="#4a7c59"/>
  <path d="M16 6 C10 6 6 11 6 16 C6 22 10 26 16 26 C22 26 26 22 26 16 C26 11 22 6 16 6 Z" fill="none"/>
  <path d="M16 8 C16 8 12 13 12 17 C12 20 13.5 22 16 22 C18.5 22 20 20 20 17 C20 13 16 8 16 8 Z" fill="#a8d5b5"/>
  <path d="M16 12 L16 22" stroke="#2d5a3d" stroke-width="1.5" stroke-linecap="round"/>
  <path d="M13 16 C13 16 14.5 14.5 16 15" stroke="#2d5a3d" stroke-width="1" stroke-linecap="round"/>
  <path d="M19 14.5 C19 14.5 17.5 13.5 16 14.5" stroke="#2d5a3d" stroke-width="1" stroke-linecap="round"/>
</svg>
